<?xml version="1.0" encoding="UTF-8" standalone="no"?>
<!DOCTYPE svg PUBLIC "-//W3C//DTD SVG 1.1//EN" "http://www.w3.org/Graphics/SVG/1.1/DTD/svg11.dtd">
<svg version="1.1" xmlns="http://www.w3.org/2000/svg" xmlns:xlink="http://www.w3.org/1999/xlink" preserveAspectRatio="xMidYMid meet" viewBox="0 0 640 640" width="56" height="56"><defs><path d="M306.8 110.15C306.8 125.98 294.69 138.84 279.78 138.84C264.87 138.84 252.77 125.98 252.77 110.15C252.77 94.32 264.87 81.46 279.78 81.46C294.69 81.46 306.8 94.32 306.8 110.15Z" id="bfbFMOjW5"></path><path d="M324.35 314.4L243.27 314.4C215.23 350.85 197.7 373.63 190.68 382.74C182.57 393.28 166.02 383.98 170.79 371.57C185.09 334.38 220.83 241.41 278.02 92.64C344.27 241.4 385.68 334.38 402.25 371.57C407.67 383.75 391.53 393.88 382.92 383.69C375.11 374.45 355.58 351.36 324.35 314.4Z" id="ejshUpc64"></path><path d="M320 310.49L248.34 310.49C223.89 343.57 208.6 364.25 202.48 372.52C195.34 382.17 180.24 374.01 184.4 362.75C197.02 328.58 228.57 243.16 279.05 106.49C337.51 243.11 374.05 328.49 388.67 362.65C393.42 373.75 378.63 382.68 371.01 373.31C364.21 364.93 347.21 343.99 320 310.49Z" id="a6iZ5TxzxQ"></path><path d="M299.78 110.15C299.78 121.19 290.82 130.15 279.78 130.15C268.75 130.15 259.78 121.19 259.78 110.15C259.78 99.11 268.75 90.15 279.78 90.15C290.82 90.15 299.78 99.11 299.78 110.15Z" id="b54YqnFUvi"></path><path d="M320 283.44L248.34 283.44C263.35 233.2 272.73 201.79 276.48 189.23C277.55 185.64 282.57 185.45 283.91 188.95C288.72 201.55 300.75 233.05 320 283.44Z" id="ciuGb2t4p"></path></defs><g><g><g><use xlink:href="#bfbFMOjW5" opacity="1" fill="#ececec" fill-opacity="1"></use></g><g><use xlink:href="#ejshUpc64" opacity="1" fill="#ececec" fill-opacity="1"></use></g><g><use xlink:href="#a6iZ5TxzxQ" opacity="1" fill="#cb2a0a" fill-opacity="1"></use></g><g><use xlink:href="#b54YqnFUvi" opacity="1" fill="#cb2a0a" fill-opacity="1"></use></g><g><use xlink:href="#ciuGb2t4p" opacity="1" fill="#ffffff" fill-opacity="1"></use></g></g></g></svg>