<?xml version="1.0" encoding="UTF-8" standalone="no"?>
<!DOCTYPE svg PUBLIC "-//W3C//DTD SVG 1.1//EN" "http://www.w3.org/Graphics/SVG/1.1/DTD/svg11.dtd">
<svg version="1.1" xmlns="http://www.w3.org/2000/svg" xmlns:xlink="http://www.w3.org/1999/xlink" preserveAspectRatio="xMidYMid meet" viewBox="0 0 640 640" width="320" height="320"><defs><path d="M124.04 249.81L553.25 249.81L553.25 494.75L124.04 494.75L124.04 249.81Z" id="d1sI3pM2l4"></path><clipPath id="clipd1acxTRRn"><use xlink:href="#d1sI3pM2l4" opacity="1"></use></clipPath><path d="M524 487.44L524 330.97C524 330.97 524 330.97 524 330.97C501.39 273.4 420.04 273.08 396.98 330.47C396.95 330.53 396.88 330.7 396.77 330.97L396.77 489.63" id="aBmnjSWqr"></path><path d="M172.3 313.05L303.18 313.05L303.18 431.51L172.3 431.51L172.3 313.05Z" id="b2BO6Mnedf"></path><path d="M232.74 309.4L242.74 309.4L242.74 431.51L232.74 431.51L232.74 309.4Z" id="dhOtGPBP5"></path><path d="M172.3 365.45L303.18 365.45L303.18 375.45L172.3 375.45L172.3 365.45Z" id="d4YAhcYAFa"></path><path d="" id="ha8xAgDpY"></path><path d="M548.13 246.88L338.65 90.41L129.16 246.88L548.13 246.88Z" id="ckft1fnaf"></path></defs><g><g><g><use xlink:href="#d1sI3pM2l4" opacity="1" fill="#ececec" fill-opacity="1"></use><g clip-path="url(#clipd1acxTRRn)"><use xlink:href="#d1sI3pM2l4" opacity="1" fill-opacity="0" stroke="#3c61da" stroke-width="20" stroke-opacity="1"></use></g></g><g><g><use xlink:href="#aBmnjSWqr" opacity="1" fill-opacity="0" stroke="#3c61da" stroke-width="10" stroke-opacity="1"></use></g></g><g><g><use xlink:href="#b2BO6Mnedf" opacity="1" fill-opacity="0" stroke="#3c61da" stroke-width="10" stroke-opacity="1"></use></g></g><g><use xlink:href="#dhOtGPBP5" opacity="1" fill="#3c61da" fill-opacity="1"></use></g><g><use xlink:href="#d4YAhcYAFa" opacity="1" fill="#3c61da" fill-opacity="1"></use></g><g><g><use xlink:href="#ha8xAgDpY" opacity="1" fill-opacity="0" stroke="#3c61da" stroke-width="10" stroke-opacity="1"></use></g></g><g><use xlink:href="#ckft1fnaf" opacity="1" fill="#ececec" fill-opacity="1"></use><g><use xlink:href="#ckft1fnaf" opacity="1" fill-opacity="0" stroke="#3c61da" stroke-width="10" stroke-opacity="1"></use></g></g></g></g></svg>